<svg xmlns="http://www.w3.org/2000/svg" viewBox="0 0 167.33 210.95"><defs><style>.cls-1{fill:#fff;}</style></defs><g id="레이어_2" data-name="레이어 2"><g id="Layer_1" data-name="Layer 1"><path class="cls-1" d="M77.09,196.63H72.22v14h4.89c4.72,0,7.51-2.41,7.51-7s-2.87-7.05-7.53-7.05m0,13.42H74V197.24h3.06c3.56,0,5.43,1.81,5.43,6.44s-1.85,6.37-5.41,6.37"/><path class="cls-1" d="M47.55,196.36c-4.44,0-7,2.86-7,7.3s2.61,7.29,7,7.29,7.08-2.82,7.08-7.29-2.63-7.3-7.08-7.3m0,14.16c-3.27,0-5-2.22-5-6.86s1.73-6.87,5-6.87,5,2.26,5,6.87-1.7,6.86-5,6.86"/><polygon class="cls-1" points="61.09 196.63 59.28 196.63 59.28 210.65 68.49 210.65 68.49 210.07 61.09 210.07 61.09 196.63"/><path class="cls-1" d="M131.75,199.46c0-1.64,1.14-2.65,3.21-2.65a6.16,6.16,0,0,1,3.73,1.48l.15-.45a5.6,5.6,0,0,0-4-1.48c-3,0-4.89,1.57-4.89,3.94,0,4.74,7.78,3.36,7.78,7.22,0,1.66-1.27,2.87-3.56,2.87a5.55,5.55,0,0,1-4.29-1.88l-.32.48s1.27,2,4.72,2c3.19,0,5.31-1.72,5.31-4.18,0-4.59-7.85-3.11-7.85-7.31"/><polygon class="cls-1" points="34.04 203.38 26.36 203.38 26.36 196.63 24.55 196.63 24.55 210.65 26.36 210.65 26.36 204.01 34.04 204.01 34.04 210.65 35.85 210.65 35.85 196.63 34.04 196.63 34.04 203.38"/><rect class="cls-1" x="89.27" y="196.63" width="1.81" height="14.01"/><path class="cls-1" d="M120.41,204.33h3.4V208c-.13.47-.86,2.39-3.9,2.39s-5-2.13-5-6.75,1.66-6.81,5.43-6.81a7.84,7.84,0,0,1,4.18,1.36l.24-.47a7.91,7.91,0,0,0-4.55-1.4c-4.7,0-7.37,2.86-7.37,7.32s2.46,7.27,6.7,7.27c3,0,4.06-1.19,4.49-2l.71,1.73h.6v-6.88h-4.93Z"/><polygon class="cls-1" points="107.56 207.87 107.6 208.36 98.8 196.63 96.95 196.63 96.95 210.65 97.64 210.65 97.55 198.66 97.47 197.99 97.51 197.99 107.08 210.65 108.18 210.65 108.18 196.63 107.49 196.63 107.56 207.87"/><path class="cls-1" d="M61.85,148.42H60.12l.17,22.68v.27c0,7.44-4.15,11.32-10.94,11.32-6.57,0-10.35-3.61-10.35-11.59V148.42H34.48V172c0,7.38,5,12.18,13.68,12.18,9.49,0,13.69-5,13.69-12.18Z"/><polygon class="cls-1" points="4.53 148.42 0 148.42 0 183.44 23 183.44 23 181.99 4.53 181.99 4.53 148.42"/><polygon class="cls-1" points="105.11 183.44 91.48 164.8 91.48 164.75 103.76 148.42 101.77 148.42 90.62 163.45 90.45 163.51 80.38 148.42 74.45 148.42 86.85 166.36 73.81 183.44 75.96 183.44 87.76 167.6 87.92 167.6 99.34 183.44 105.11 183.44"/><rect class="cls-1" x="117.61" y="148.42" width="4.53" height="35.02"/><path class="cls-1" d="M153.65,148.42h-4.31l-14.49,35h1.83l3.16-7.78v0a.21.21,0,0,0,0-.07.8.8,0,0,1,.09-.14.37.37,0,0,1,.06-.1l.16-.21.09-.12c.07-.08.17-.16.26-.25l.13-.12a2.53,2.53,0,0,1,.36-.25l.17-.12a4.3,4.3,0,0,1,.48-.22l.22-.11c.19-.06.41-.11.63-.16a2,2,0,0,1,.26-.06,6,6,0,0,1,1.08-.09c3.56,0,7.06,4.55,12.08,2.85a4.16,4.16,0,0,0,2.91-2.48l3.68,9.45h4.79Zm2.3,26.1c-3.11.41-6.73-4-11.35-3a7.86,7.86,0,0,0-1.21.34h0a7.86,7.86,0,0,0-1,.43l0,0a7.27,7.27,0,0,0-.83.49h0a8.28,8.28,0,0,0-.69.53l9.11-22.45,8.45,21.72a2.68,2.68,0,0,1-2.38,1.9"/><polygon class="cls-1" points="108.23 109.61 59.1 109.61 59.1 21.66 55.32 25.27 55.32 113.39 112.01 113.39 112.01 64.97 108.23 61.36 108.23 109.61"/><polygon class="cls-1" points="104.45 57.75 100.67 54.14 100.67 102.05 66.66 102.05 66.66 14.44 62.88 18.05 62.88 105.83 104.45 105.83 104.45 57.75"/><polygon class="cls-1" points="96.9 50.53 93.12 46.92 93.12 94.49 74.22 94.49 74.22 7.22 70.44 10.83 70.44 98.27 96.9 98.27 96.9 50.53"/><polygon class="cls-1" points="89.34 43.31 85.56 39.7 85.56 86.93 81.78 86.93 81.78 0 78 3.61 78 90.71 89.34 90.71 89.34 43.31"/></g></g></svg>